<?xml version="1.0" standalone="no"?>
<!DOCTYPE svg PUBLIC "-//W3C//DTD SVG 20010904//EN"
 "http://www.w3.org/TR/2001/REC-SVG-20010904/DTD/svg10.dtd">
<svg version="1.0" xmlns="http://www.w3.org/2000/svg"
 width="1924.000000pt" height="2579.000000pt" viewBox="0 0 1924.000000 2579.000000"
 preserveAspectRatio="xMidYMid meet">
<metadata>
Created by potrace 1.15, written by Peter Selinger 2001-2017
</metadata>
<g transform="translate(0.000000,2579.000000) scale(0.100000,-0.100000)"
fill="#000000" stroke="none">
<path d="M15201 25786 c5 -5 494 -18 736 -20 83 0 154 -4 158 -8 4 -4 18 -2
32 3 15 5 30 6 37 1 6 -5 52 -8 101 -7 50 1 92 -1 95 -5 3 -4 28 -4 55 0 28 5
66 7 85 4 19 -2 204 -6 410 -8 325 -4 801 -12 1080 -20 47 -1 90 -5 97 -9 6
-4 14 -3 18 3 4 6 10 8 15 5 5 -3 65 -6 134 -6 69 0 127 -3 130 -7 2 -4 182
-7 400 -7 385 0 396 -1 405 -20 6 -11 16 -94 22 -185 20 -301 26 -301 28 3 l1
287 -2022 0 c-1112 0 -2019 -2 -2017 -4z"/>
<path d="M9855 24933 c-51 -2 -157 -11 -355 -28 -142 -12 -225 -16 -408 -20
-112 -3 -207 -7 -212 -10 -4 -3 -57 -5 -117 -6 -59 0 -150 -7 -201 -15 -51 -9
-100 -13 -107 -10 -8 3 -17 0 -21 -5 -3 -6 -17 -8 -29 -5 -13 3 -26 2 -29 -3
-3 -4 -22 -9 -43 -10 -37 -1 -86 -7 -90 -11 -2 -2 -15 -4 -30 -5 -16 -1 -57
-7 -93 -14 -36 -6 -85 -15 -110 -19 -25 -4 -63 -7 -85 -6 -22 1 -44 0 -49 -4
-6 -3 -24 -7 -41 -9 -16 -2 -31 -8 -33 -13 -2 -6 -14 -10 -27 -10 -13 0 -27
-4 -30 -10 -3 -5 -17 -10 -30 -10 -13 0 -26 -4 -30 -9 -3 -6 -13 -8 -23 -7
-30 6 -131 -14 -196 -39 -23 -9 -46 -15 -52 -14 -5 1 -16 0 -24 -3 -54 -19
-89 -28 -103 -28 -9 0 -17 -5 -17 -10 0 -6 -3 -9 -7 -8 -11 4 -130 -40 -174
-63 -20 -10 -43 -19 -51 -19 -8 0 -43 -12 -79 -26 -35 -14 -73 -28 -84 -30
-11 -2 -29 -8 -40 -13 -11 -5 -40 -14 -65 -21 -25 -6 -58 -18 -75 -25 -16 -7
-49 -16 -71 -19 -23 -3 -54 -13 -70 -21 -16 -8 -37 -15 -46 -15 -9 0 -19 -4
-22 -9 -3 -5 -23 -12 -43 -16 -21 -4 -42 -10 -48 -14 -5 -5 -35 -16 -65 -26
-30 -9 -63 -22 -73 -27 -10 -5 -23 -6 -29 -2 -6 4 -8 3 -5 -3 6 -10 -79 -50
-95 -45 -5 1 -8 -2 -8 -7 0 -12 -57 -34 -69 -27 -5 4 -12 2 -15 -3 -3 -5 -18
-12 -33 -16 -16 -3 -42 -17 -60 -31 -17 -13 -38 -24 -45 -24 -7 0 -26 -9 -43
-20 -16 -11 -38 -20 -48 -20 -10 0 -29 -11 -43 -25 -14 -14 -27 -25 -30 -25
-3 0 -14 -9 -26 -20 -12 -11 -49 -34 -82 -51 -34 -18 -63 -34 -66 -38 -6 -8
-34 -25 -82 -51 -20 -11 -40 -24 -43 -30 -3 -6 -24 -19 -45 -30 -21 -11 -44
-25 -51 -32 -8 -7 -30 -21 -49 -31 -66 -35 -95 -53 -159 -100 -35 -26 -67 -47
-71 -47 -5 0 -15 -6 -22 -13 -12 -12 -114 -81 -150 -102 -31 -18 -103 -69
-119 -85 -9 -8 -58 -49 -109 -90 -51 -41 -107 -90 -123 -107 -17 -18 -36 -33
-43 -33 -13 0 -134 -132 -134 -146 0 -5 -11 -21 -25 -36 -14 -15 -25 -30 -25
-33 0 -3 -13 -20 -29 -38 -79 -87 -94 -105 -118 -147 -15 -25 -38 -57 -53 -72
-14 -14 -32 -39 -40 -55 -8 -15 -29 -49 -47 -75 -18 -26 -33 -51 -33 -56 0 -5
-9 -26 -19 -48 -10 -21 -31 -64 -45 -94 -14 -30 -35 -68 -46 -85 -11 -16 -23
-37 -27 -45 -3 -8 -11 -18 -15 -21 -5 -3 -11 -12 -12 -20 -3 -15 -19 -53 -76
-174 -52 -111 -76 -170 -96 -240 -10 -33 -20 -64 -24 -70 -4 -5 -10 -27 -14
-48 -4 -21 -16 -59 -27 -85 -12 -26 -27 -78 -34 -117 -8 -38 -28 -133 -46
-210 -17 -77 -39 -187 -48 -245 -10 -58 -21 -112 -25 -121 -4 -9 -15 -61 -25
-115 -23 -120 -75 -354 -91 -409 -7 -22 -13 -51 -15 -65 -3 -25 -9 -47 -25
-85 -5 -11 -13 -49 -18 -85 -6 -36 -17 -94 -25 -130 -8 -36 -18 -92 -21 -125
-4 -33 -11 -76 -17 -96 -8 -32 -20 -105 -34 -199 -8 -57 -18 -124 -21 -140
-35 -191 -65 -667 -63 -1005 1 -121 1 -319 0 -440 -1 -146 3 -252 13 -315 15
-100 16 -129 20 -510 3 -252 7 -284 37 -316 15 -16 19 -35 19 -96 0 -72 -2
-78 -27 -96 -43 -30 -56 -31 -88 -8 -53 39 -127 76 -151 76 -12 0 -26 5 -29
10 -3 6 -15 10 -26 10 -10 0 -19 4 -19 9 0 11 -49 28 -116 41 -27 5 -71 14
-99 20 -52 12 -45 13 -228 -34 -33 -8 -67 -22 -76 -30 -10 -9 -22 -16 -29 -16
-10 0 -102 -130 -102 -146 0 -4 -6 -15 -14 -23 -7 -9 -19 -52 -25 -95 -6 -44
-15 -84 -20 -90 -5 -6 -14 -58 -20 -116 -6 -58 -16 -143 -22 -190 -20 -173 3
-339 76 -545 26 -71 53 -150 61 -175 8 -25 23 -67 34 -95 35 -90 159 -432 193
-530 11 -33 24 -61 29 -63 4 -2 8 -11 8 -20 0 -9 9 -37 20 -61 11 -24 22 -53
24 -65 2 -11 20 -55 39 -96 19 -41 42 -100 52 -130 10 -30 21 -63 26 -72 5
-10 9 -28 9 -40 0 -13 7 -36 15 -52 8 -15 15 -34 15 -42 0 -7 14 -53 31 -101
17 -48 33 -110 36 -138 3 -27 9 -54 13 -60 4 -5 10 -30 14 -55 10 -67 36 -173
47 -193 5 -10 7 -22 4 -28 -4 -5 3 -31 15 -57 41 -90 38 -76 60 -217 6 -33 14
-69 19 -80 22 -47 35 -104 37 -155 1 -47 14 -115 63 -335 5 -22 15 -67 21
-100 7 -33 16 -68 21 -77 14 -27 61 -288 74 -414 3 -29 13 -66 21 -83 9 -18
14 -41 11 -52 -3 -10 -1 -17 4 -13 5 3 9 -4 9 -16 0 -12 -4 -18 -10 -15 -5 3
-10 -1 -10 -9 0 -9 -4 -16 -8 -16 -14 0 -7 -48 10 -67 11 -12 14 -23 8 -33 -5
-8 -5 -21 1 -31 5 -10 9 -31 9 -47 0 -16 7 -35 15 -42 8 -7 15 -17 15 -22 0
-8 71 -108 122 -171 13 -15 43 -42 68 -59 25 -17 63 -47 85 -65 51 -43 183
-108 260 -127 49 -12 137 -23 212 -26 11 0 18 -50 27 -185 2 -33 9 -73 16 -90
6 -16 18 -59 26 -95 8 -36 20 -83 25 -105 11 -46 35 -186 45 -261 5 -39 3 -54
-10 -66 -9 -9 -16 -20 -16 -23 0 -8 -50 -74 -99 -131 -20 -22 -44 -55 -53 -73
-11 -20 -24 -31 -35 -29 -13 2 -17 -3 -15 -15 3 -19 -29 -67 -101 -150 -107
-123 -234 -288 -342 -443 -22 -31 -65 -88 -95 -125 -30 -37 -73 -93 -95 -124
-22 -32 -60 -84 -85 -117 -25 -32 -61 -81 -80 -107 -137 -192 -193 -267 -260
-346 -42 -49 -87 -106 -100 -125 -20 -29 -111 -141 -130 -160 -3 -3 -45 -50
-95 -104 -185 -204 -435 -430 -606 -547 -35 -24 -66 -47 -69 -50 -5 -6 -197
-136 -228 -154 -9 -5 -30 -19 -47 -31 -16 -11 -61 -37 -100 -58 -38 -21 -72
-41 -75 -45 -3 -5 -88 -61 -190 -126 -102 -64 -210 -133 -240 -153 -30 -20
-82 -50 -115 -67 -33 -17 -82 -44 -110 -60 -96 -57 -111 -65 -226 -125 -65
-32 -152 -80 -194 -105 -42 -25 -85 -45 -95 -45 -10 0 -31 -10 -47 -23 -15
-13 -48 -31 -73 -41 -25 -10 -51 -22 -58 -28 -9 -8 -12 -684 -12 -3319 l0
-3309 9620 0 9620 0 0 3034 c0 2757 -1 3034 -16 3040 -9 3 -25 6 -36 6 -38 0
-222 44 -278 66 -19 8 -59 19 -88 24 -30 5 -59 13 -65 17 -7 5 -41 8 -77 9
-36 1 -74 4 -85 7 -11 3 -42 11 -70 18 -27 6 -58 16 -67 21 -10 5 -37 13 -60
18 -24 5 -85 20 -135 34 -51 14 -100 23 -108 20 -8 -4 -15 -1 -15 5 0 6 -10
11 -21 11 -23 0 -90 16 -124 30 -11 5 -38 11 -60 14 -22 3 -74 15 -115 27 -74
21 -321 83 -390 98 -19 4 -49 15 -67 24 -18 9 -42 17 -53 17 -12 0 -31 5 -43
11 -11 7 -42 18 -67 25 -62 17 -260 88 -288 103 -12 6 -22 9 -22 5 0 -3 -6 -2
-13 4 -7 6 -33 14 -57 18 -25 3 -73 19 -108 35 -35 16 -65 29 -67 29 -2 0 -43
18 -90 40 -47 22 -92 40 -100 40 -7 0 -15 4 -17 9 -1 5 -68 43 -148 84 -168
86 -161 83 -304 167 -59 36 -111 70 -113 77 -3 7 -13 13 -22 13 -10 0 -42 17
-73 37 -30 21 -62 43 -70 48 -46 29 -174 120 -183 130 -5 6 -28 23 -51 37 -53
34 -274 250 -274 269 0 8 -38 56 -85 108 -46 52 -83 97 -83 100 1 3 -3 17 -10
31 -6 14 -18 50 -27 82 -12 38 -23 58 -36 61 -29 8 -23 25 21 69 22 22 40 44
40 49 0 5 11 27 25 49 14 22 25 43 25 47 0 5 14 21 30 37 17 16 30 35 30 42 0
7 10 25 23 41 23 27 117 214 117 231 0 5 13 38 29 73 16 35 28 66 27 69 0 3 9
18 22 34 12 16 22 35 22 42 0 8 4 22 10 32 5 9 25 62 45 117 20 55 59 146 86
202 27 57 49 107 49 113 0 5 4 10 10 10 5 0 19 21 30 48 39 88 95 192 102 192
5 0 8 6 8 13 0 8 10 26 23 40 12 15 31 50 42 78 11 28 28 58 37 66 10 9 18 26
18 37 0 12 9 36 20 54 11 18 20 40 20 50 0 10 4 22 8 27 5 6 15 26 22 45 8 19
20 41 27 48 7 7 13 22 13 33 0 10 23 65 52 122 57 113 57 113 88 212 12 39 26
80 31 93 5 13 9 33 9 46 0 13 7 40 15 60 9 20 17 53 19 74 1 20 6 44 9 52 13
34 47 221 49 266 1 27 5 54 9 59 7 11 16 92 24 219 3 44 9 84 14 90 5 6 12 67
15 136 7 143 15 198 27 206 5 3 7 9 5 13 -3 4 4 50 14 102 11 52 20 115 21
142 1 26 3 47 4 47 11 0 96 -43 100 -50 8 -13 77 -13 112 1 15 6 39 13 52 15
14 3 29 8 35 12 6 3 19 5 29 4 10 -2 29 4 43 13 13 9 29 13 34 10 6 -4 13 1
16 9 3 9 10 13 15 10 5 -3 9 0 9 5 0 6 9 11 20 11 28 0 100 74 100 104 0 13 7
43 17 67 10 27 17 83 19 144 2 55 6 123 9 150 15 137 31 241 38 252 4 6 8 37
8 70 1 32 7 81 14 108 19 71 43 233 42 280 -1 53 13 137 24 151 14 17 33 196
44 414 2 41 10 104 18 139 9 36 14 100 13 145 -2 45 2 89 8 98 8 14 6 20 -8
31 -15 11 -17 21 -12 58 4 24 8 60 9 79 2 19 6 40 10 47 7 11 20 281 17 371 0
23 3 48 7 55 11 18 11 32 16 477 3 345 6 409 19 435 12 23 16 60 16 157 0 69
2 130 5 135 6 9 20 303 27 578 3 92 -17 275 -29 275 -4 0 -8 21 -10 48 -1 26
-9 81 -18 122 -9 41 -17 89 -18 105 -2 47 -63 169 -96 190 -15 11 -26 21 -24
23 2 2 -12 32 -31 67 -19 34 -34 68 -34 75 0 7 -11 21 -25 32 -14 11 -25 25
-25 31 0 7 -19 20 -41 29 -33 14 -40 15 -35 3 4 -11 -2 -13 -27 -8 -18 3 -44
12 -58 19 -64 32 -151 56 -182 50 -44 -9 -55 -9 -109 -1 -41 7 -48 5 -48 -9 0
-24 -21 -20 -74 15 -74 50 -100 92 -151 244 -40 123 -84 270 -91 303 -4 18
-11 35 -15 38 -5 3 -9 15 -9 28 0 12 -12 47 -26 77 -16 31 -31 86 -37 129 -5
41 -14 85 -20 97 -6 13 -7 26 -4 30 4 3 0 17 -9 31 -8 13 -13 29 -11 37 3 7
-1 22 -8 32 -15 22 -61 193 -76 283 -8 50 -33 153 -47 190 -3 8 -7 24 -9 35
-2 11 -10 49 -18 85 -7 36 -19 94 -26 130 -7 36 -20 88 -30 115 -10 28 -23 68
-28 90 -6 22 -20 74 -31 115 -12 41 -23 82 -24 90 -1 8 -10 29 -19 47 -9 17
-22 64 -28 105 -6 40 -13 80 -16 88 -31 82 -76 214 -87 250 -7 25 -18 56 -25
67 -6 12 -11 31 -11 42 0 10 -7 32 -14 48 -21 40 -29 64 -33 96 -1 16 -9 43
-16 60 -52 120 -63 145 -78 167 -9 14 -25 59 -35 100 -10 41 -24 82 -31 91 -7
8 -13 20 -13 26 0 5 -11 32 -25 59 -14 27 -25 53 -25 57 0 18 -107 241 -150
312 -17 28 -33 58 -36 68 -4 9 -10 17 -15 17 -5 0 -9 8 -9 18 0 11 -9 27 -20
37 -11 10 -20 24 -20 32 0 13 -46 93 -60 103 -6 4 -45 74 -86 151 -8 15 -21
32 -29 39 -8 7 -15 18 -15 25 0 8 -11 27 -25 43 -14 17 -25 33 -25 36 0 4 -5
12 -10 19 -6 7 -38 50 -73 97 -34 47 -76 99 -92 116 -49 51 -75 85 -75 98 0 7
-27 41 -60 76 -33 35 -60 70 -60 77 0 7 -4 13 -8 13 -5 0 -24 21 -42 48 -19
26 -39 52 -45 59 -30 35 -35 43 -35 48 0 4 -7 14 -16 22 -9 9 -33 39 -54 67
-35 46 -203 214 -351 351 -30 28 -63 61 -74 75 -11 14 -43 43 -70 65 -28 21
-54 45 -58 52 -4 7 -13 13 -20 13 -6 0 -30 18 -52 40 -69 68 -174 160 -182
160 -5 0 -21 12 -38 26 -16 14 -50 40 -75 57 -25 17 -60 46 -79 64 -19 18 -40
33 -46 33 -7 0 -15 7 -19 15 -3 8 -12 15 -21 15 -8 0 -15 4 -15 9 0 5 -11 12
-25 15 -16 4 -25 13 -25 27 0 22 -28 38 -39 21 -4 -7 -27 8 -61 39 -30 27 -73
58 -95 68 -22 10 -51 30 -64 45 -14 14 -31 26 -38 26 -8 0 -16 7 -19 15 -3 8
-25 23 -48 35 -24 11 -62 38 -85 59 -22 21 -41 36 -41 34 0 -8 -57 27 -80 50
-14 13 -35 27 -46 31 -12 4 -37 22 -55 41 -19 19 -39 35 -45 35 -6 0 -29 16
-51 35 -23 19 -45 35 -51 35 -5 0 -21 9 -34 20 -14 10 -28 16 -32 13 -3 -4
-16 3 -29 13 -22 20 -213 118 -232 119 -5 0 -35 12 -65 26 -49 23 -97 43 -195
84 -46 19 -120 45 -235 80 -99 31 -149 48 -195 66 -11 4 -38 13 -60 20 -22 6
-47 14 -55 17 -8 3 -19 6 -25 7 -5 0 -15 4 -22 8 -10 6 -137 33 -173 36 -8 0
-46 5 -85 10 -225 31 -374 41 -615 43 -146 2 -292 2 -325 1z m1722 -1757 c137
-4 261 -13 350 -27 76 -11 149 -22 163 -23 14 -2 32 -6 40 -9 23 -9 140 -38
185 -46 22 -5 67 -18 100 -31 33 -12 78 -28 100 -34 22 -6 56 -19 75 -28 19
-9 64 -26 100 -38 89 -31 231 -100 237 -116 3 -8 9 -14 13 -14 9 0 141 -80
150 -90 3 -3 26 -18 52 -33 26 -15 53 -33 60 -40 19 -18 99 -70 128 -83 14 -6
36 -23 49 -38 14 -14 30 -26 38 -26 7 0 13 -4 13 -10 0 -5 5 -10 10 -10 6 0
27 -18 49 -40 21 -22 43 -40 48 -40 5 0 30 -22 56 -50 26 -27 53 -50 60 -50 8
0 34 -20 59 -45 25 -25 50 -45 54 -45 5 0 34 -28 64 -61 30 -33 76 -82 103
-108 26 -27 47 -52 47 -56 0 -4 28 -36 63 -70 34 -35 61 -68 59 -74 -2 -6 3
-11 12 -11 9 0 16 -5 16 -11 0 -7 10 -21 23 -33 12 -11 28 -32 34 -46 14 -28
35 -62 43 -70 8 -8 29 -43 42 -70 7 -14 15 -27 18 -30 10 -10 41 -66 92 -165
82 -162 88 -174 88 -185 0 -5 5 -10 10 -10 6 0 10 -11 10 -24 0 -14 5 -28 10
-31 6 -3 10 -15 10 -26 0 -11 7 -22 15 -25 8 -4 15 -13 15 -22 0 -29 59 -184
60 -157 1 6 7 -3 14 -20 15 -35 31 -117 46 -230 10 -74 28 -169 52 -270 5 -22
10 -50 12 -62 2 -12 7 -34 10 -50 4 -15 8 -39 11 -52 2 -13 9 -38 14 -55 5
-17 13 -51 16 -76 4 -25 11 -49 15 -55 4 -5 8 -17 8 -25 1 -25 29 -144 50
-212 11 -35 23 -80 26 -99 3 -19 8 -43 10 -54 17 -74 37 -159 52 -210 9 -33
18 -76 21 -95 3 -19 9 -39 13 -45 4 -5 11 -28 14 -50 8 -44 13 -62 49 -180 14
-44 28 -102 32 -129 4 -27 11 -56 15 -65 10 -18 39 -129 47 -176 3 -16 11 -44
19 -62 8 -17 14 -42 14 -56 0 -14 5 -29 10 -32 6 -4 8 -11 4 -16 -3 -5 1 -21
10 -34 9 -14 18 -37 20 -52 2 -16 8 -39 14 -53 6 -14 14 -38 18 -55 9 -36 11
-43 14 -52 2 -5 4 -12 5 -18 1 -5 10 -28 20 -50 10 -22 19 -44 20 -50 0 -5 4
-15 7 -21 12 -18 38 -98 38 -116 0 -10 4 -18 9 -18 5 0 14 -12 20 -27 6 -16
15 -35 20 -43 22 -33 91 -188 91 -202 0 -9 7 -21 15 -28 8 -7 15 -20 15 -29 0
-10 11 -50 25 -89 14 -39 25 -81 25 -93 0 -12 6 -45 14 -73 30 -106 33 -123
32 -216 l-1 -95 -35 3 c-87 6 -201 6 -267 0 -59 -6 -71 -5 -67 6 3 8 1 17 -5
21 -6 3 -11 14 -11 24 0 10 -11 28 -25 41 -14 13 -25 29 -25 36 0 18 -40 49
-160 123 -28 17 -144 67 -198 85 -29 9 -92 19 -140 22 -48 3 -109 7 -137 9
-106 9 -296 5 -430 -9 -77 -8 -199 -20 -272 -26 -128 -10 -135 -10 -210 14
-70 22 -144 31 -323 40 -25 1 -113 -1 -197 -5 -127 -7 -169 -13 -254 -38 -56
-17 -121 -31 -143 -31 -23 0 -90 -14 -151 -30 -60 -17 -143 -37 -183 -45 -71
-14 -174 -50 -238 -81 -30 -15 -124 -114 -124 -130 0 -4 7 -15 16 -25 15 -17
19 -15 82 27 37 24 76 48 87 53 11 5 35 21 54 35 19 14 42 26 50 26 8 0 28 4
45 9 56 17 111 31 141 35 17 2 50 11 75 19 25 8 52 15 60 16 79 4 230 20 239
25 19 12 54 19 101 21 25 2 88 5 140 9 113 7 220 10 314 8 53 -2 67 -5 58 -14
-6 -6 -19 -12 -29 -13 -72 -7 -137 -19 -188 -35 -113 -36 -250 -72 -360 -95
-60 -13 -141 -31 -180 -39 -38 -9 -95 -21 -125 -27 -30 -6 -77 -17 -105 -25
-60 -17 -223 -50 -360 -72 -55 -10 -104 -20 -110 -23 -5 -4 -32 -9 -60 -13
-122 -16 -325 -75 -380 -110 -11 -7 -51 -23 -90 -36 -83 -27 -244 -114 -299
-161 -22 -19 -76 -68 -120 -110 l-81 -76 -80 -14 c-44 -7 -134 -14 -200 -15
-66 -1 -127 -4 -135 -6 -38 -12 -93 -18 -195 -23 -137 -7 -200 -12 -340 -25
-60 -6 -123 -10 -140 -10 -16 0 -75 -4 -130 -9 -55 -5 -100 -8 -100 -8 0 47
-366 274 -510 318 -22 6 -50 15 -63 20 -13 5 -40 9 -60 9 -21 0 -43 5 -49 11
-7 7 -33 13 -60 14 -26 2 -61 8 -76 14 -16 6 -32 11 -38 11 -5 0 -8 9 -6 21 4
42 -56 75 -208 115 -264 68 -309 74 -550 76 -348 2 -653 -42 -938 -137 -101
-34 -128 -54 -119 -88 4 -17 11 -18 50 -13 25 3 50 10 56 14 16 11 110 38 181
52 33 7 71 16 85 22 14 6 39 12 55 15 17 2 84 13 150 25 66 11 138 22 160 24
396 27 527 20 790 -40 6 -1 37 -8 70 -15 86 -18 165 -52 165 -70 0 -14 -49
-16 -463 -16 -437 0 -468 -1 -572 -22 -60 -12 -141 -25 -180 -28 -38 -3 -128
-10 -200 -15 -71 -5 -161 -14 -200 -19 -78 -11 -280 -34 -485 -57 -280 -30
-439 -57 -618 -103 -126 -33 -259 -78 -282 -96 -8 -7 -26 -16 -40 -20 -14 -4
-40 -21 -58 -36 -18 -16 -36 -29 -41 -29 -5 0 -35 -24 -68 -52 -113 -100 -123
-108 -133 -108 -5 0 -10 -4 -10 -10 0 -5 -6 -10 -14 -10 -7 0 -20 -7 -27 -16
-8 -9 -32 -28 -54 -42 -22 -14 -50 -35 -63 -47 -18 -19 -28 -21 -60 -15 -52
10 -92 28 -92 40 0 5 -9 10 -20 10 -11 0 -20 6 -20 13 0 6 -11 17 -25 24 -14
6 -25 7 -25 2 0 -12 -31 0 -55 22 -11 9 -42 19 -70 22 -27 2 -75 12 -105 22
-154 48 -236 66 -277 60 -38 -6 -41 -4 -36 15 4 16 2 19 -11 14 -9 -3 -16 -11
-16 -16 0 -6 -10 1 -21 16 -21 26 -21 34 -15 194 7 173 30 350 46 366 6 6 10
32 10 58 0 27 4 56 10 66 24 42 59 302 76 562 3 52 10 131 15 175 5 44 14 184
19 310 6 127 18 284 26 350 9 66 18 143 20 170 3 28 16 149 30 270 14 121 29
260 35 310 8 78 42 301 55 360 7 34 14 74 45 235 16 85 33 174 39 197 5 23 14
84 20 135 10 90 21 150 42 233 6 22 18 78 28 125 32 150 103 412 140 515 11
33 27 87 35 120 8 33 28 101 45 150 17 50 42 131 55 180 13 50 42 140 65 200
73 192 123 320 129 325 3 3 13 17 21 32 37 66 84 143 90 148 4 3 13 17 21 31
15 29 62 90 94 123 35 37 64 82 69 109 2 15 7 31 11 37 12 19 124 88 217 135
51 25 118 59 148 75 30 16 93 41 140 55 47 15 94 30 105 35 11 5 45 14 75 19
30 6 66 13 79 15 14 3 61 8 105 12 45 3 110 10 146 15 36 5 101 9 145 9 44 0
107 4 140 10 59 9 85 11 322 30 111 9 216 22 283 36 14 3 71 12 127 20 56 7
121 18 145 23 116 26 250 41 418 47 102 3 201 10 220 15 19 5 54 9 77 9 23 0
44 4 47 9 3 4 38 12 78 15 40 4 105 13 143 21 172 32 257 46 355 55 58 6 150
15 205 21 175 18 309 25 327 17 10 -5 18 -3 21 5 3 9 92 13 383 15 208 1 406
4 439 7 33 3 167 6 297 8 131 2 240 5 242 8 3 2 60 1 128 -3 68 -4 218 -9 335
-12z m5133 -5662 c30 -20 66 -41 80 -46 66 -25 99 -46 139 -87 25 -26 45 -50
45 -54 1 -5 9 -15 20 -22 10 -8 15 -18 12 -23 -3 -6 1 -23 9 -38 8 -16 15 -34
15 -40 0 -16 30 -113 42 -141 6 -11 7 -26 4 -32 -4 -6 -3 -11 2 -11 10 0 21
-33 28 -85 3 -16 11 -48 18 -70 40 -114 40 -117 16 -610 -6 -115 -12 -253 -14
-305 -3 -52 -11 -138 -20 -190 -8 -52 -17 -176 -21 -275 -7 -219 -7 -211 1
-257 3 -21 3 -46 -1 -55 -4 -10 -9 -94 -11 -188 -1 -93 -5 -235 -8 -315 -3
-80 -8 -228 -11 -330 -6 -228 -11 -291 -25 -369 -6 -33 -10 -80 -10 -103 1
-24 -8 -115 -20 -203 -12 -88 -22 -177 -24 -197 -1 -20 -5 -40 -9 -44 -4 -4
-7 -28 -8 -53 0 -52 -10 -111 -32 -191 -9 -30 -18 -71 -20 -91 -2 -20 -8 -43
-12 -49 -9 -15 -33 -176 -41 -270 -3 -36 -10 -77 -15 -92 -8 -20 -8 -51 2
-115 7 -48 12 -91 11 -95 -1 -4 -6 -42 -12 -85 -19 -147 -26 -181 -44 -207
-31 -48 -57 -68 -78 -62 -12 3 -34 -2 -49 -10 -37 -19 -166 -19 -199 1 -14 8
-42 21 -62 30 -42 19 -50 33 -52 95 -1 25 -8 80 -16 123 -11 60 -11 80 -2 86
7 4 15 28 18 53 6 43 5 46 -13 42 -24 -7 -22 -34 -21 311 1 143 2 276 2 295 0
186 -19 578 -40 840 -1 19 -5 73 -8 120 -3 47 -9 130 -15 185 -22 217 -38 445
-47 670 -2 50 -6 100 -9 113 -14 58 -27 194 -35 379 -9 205 -15 255 -51 418
-10 50 -22 115 -25 146 -6 52 -4 57 20 72 16 11 26 27 26 42 0 14 3 25 8 25 4
0 13 15 20 33 44 108 127 289 135 294 5 3 25 38 43 77 19 39 45 89 59 111 13
22 36 65 51 95 15 30 31 58 36 61 6 4 8 23 6 44 -3 37 -1 39 49 65 29 15 71
44 93 64 28 25 47 35 62 32 13 -3 30 -5 39 -5 14 -1 69 -73 69 -91 0 -5 5 -10
11 -12 5 -2 11 -10 12 -19 2 -9 10 -28 20 -42 9 -15 17 -33 17 -41 0 -8 5 -18
11 -21 6 -4 8 -12 6 -19 -2 -6 0 -22 5 -36 11 -30 20 -134 18 -212 -2 -82 20
-118 72 -118 43 0 52 29 50 163 -2 178 -27 277 -85 329 -13 11 -17 25 -14 39
7 26 -22 87 -45 95 -11 3 -18 15 -18 30 0 32 -18 50 -58 59 -17 3 -34 11 -37
16 -4 5 -15 9 -26 9 -12 0 -19 7 -19 19 0 14 -6 17 -22 14 -30 -6 -130 -83
-144 -111 -6 -13 -20 -33 -32 -45 -11 -12 -35 -47 -53 -77 -18 -30 -40 -64
-49 -75 -9 -11 -26 -43 -37 -71 -11 -28 -49 -88 -83 -135 -35 -46 -69 -98 -76
-116 -8 -17 -18 -34 -22 -37 -5 -3 -26 -47 -47 -98 -21 -51 -42 -97 -45 -103
-4 -5 -10 -23 -14 -39 -6 -25 -27 -56 -39 -56 -6 0 -19 78 -18 108 1 12 -4 22
-9 22 -6 0 -9 13 -8 28 1 15 -1 33 -5 39 -4 7 -10 36 -13 65 -3 28 -9 57 -13
63 -5 5 -12 28 -15 50 -6 35 -4 41 15 50 26 12 34 44 13 52 -20 8 -17 59 7
123 12 30 23 64 25 74 2 11 14 31 28 45 13 14 27 41 31 59 8 40 31 86 50 102
7 6 27 13 44 15 39 5 71 22 71 38 -1 20 -26 47 -44 47 -25 0 -20 15 27 71 50
63 208 219 219 219 5 0 21 8 35 18 32 20 88 40 123 41 14 1 50 -15 80 -35z
m-2182 -378 c78 -3 151 -10 161 -16 11 -5 28 -10 39 -10 11 0 25 -6 31 -14 6
-8 24 -16 39 -19 123 -24 174 -61 188 -135 9 -48 37 -100 68 -126 21 -19 70
-104 92 -161 4 -11 6 -39 6 -63 -1 -24 4 -53 10 -65 29 -53 47 -383 29 -522
-16 -120 -54 -299 -86 -410 -13 -44 -27 -95 -30 -112 -4 -18 -11 -35 -16 -38
-5 -4 -9 -17 -9 -30 0 -19 -13 -32 -61 -60 -33 -19 -63 -35 -67 -35 -4 0 -39
-18 -77 -41 -96 -57 -331 -156 -440 -186 -91 -25 -151 -36 -305 -54 -47 -5
-123 -16 -170 -24 -47 -8 -146 -17 -220 -20 -148 -6 -435 -29 -571 -46 -47 -6
-126 -12 -175 -14 -49 -3 -109 -7 -134 -9 -41 -5 -221 -15 -395 -22 -38 -1
-105 -5 -148 -9 -46 -4 -82 -3 -90 3 -6 5 -30 13 -52 16 -22 4 -81 28 -131 52
-79 39 -104 55 -161 104 -7 5 -16 10 -22 10 -5 0 -26 23 -46 50 -20 28 -40 50
-43 50 -4 0 -16 14 -27 30 -11 17 -28 33 -38 36 -10 3 -17 11 -16 17 3 16 -9
44 -40 92 -41 64 -51 86 -51 109 0 12 -9 38 -20 59 -11 20 -20 46 -20 57 0 11
-6 20 -12 20 -13 0 -60 108 -73 164 -3 17 -19 46 -34 65 -40 51 -43 66 -43
230 -1 138 10 220 33 247 5 7 11 27 12 45 1 26 14 46 55 86 29 29 55 53 58 53
12 0 83 74 78 82 -3 4 2 8 11 8 9 0 23 6 31 14 7 8 22 12 33 9 13 -3 25 3 36
21 16 24 44 39 30 16 -3 -5 3 -10 14 -10 11 0 23 5 27 12 5 8 1 9 -12 5 -18
-7 -18 -7 0 8 30 23 40 18 22 -10 -9 -14 -14 -25 -11 -25 3 0 -4 -19 -16 -42
-14 -28 -19 -52 -16 -75 3 -18 1 -47 -5 -64 -8 -25 -7 -33 7 -49 36 -40 95
-12 95 45 0 46 28 132 63 195 17 30 29 57 28 60 -1 3 11 8 26 12 41 9 125 35
146 43 12 5 17 2 17 -8 0 -8 -3 -17 -7 -19 -23 -10 -88 -153 -109 -238 -16
-66 -16 -73 -1 -87 26 -26 58 -1 91 70 39 85 53 118 61 144 5 19 36 62 100
141 28 34 37 40 79 46 25 4 48 11 51 17 4 5 17 9 30 9 13 0 26 4 29 9 7 10
126 35 133 27 3 -3 -7 -37 -23 -76 -25 -65 -26 -74 -16 -121 7 -28 12 -60 12
-72 0 -12 16 -47 35 -77 18 -30 32 -57 29 -59 -3 -3 -20 3 -39 13 -63 34 -119
-2 -76 -48 37 -39 106 -68 196 -83 17 -3 48 -12 70 -20 22 -8 56 -19 75 -25
19 -5 40 -14 45 -18 20 -15 148 -32 199 -26 29 3 88 15 132 27 158 41 170 45
194 64 8 7 36 18 63 25 26 7 51 19 56 27 8 15 50 42 126 84 22 11 56 36 75 54
19 18 53 45 75 60 22 14 54 40 72 55 18 16 56 44 85 61 87 52 138 109 138 153
0 26 -39 54 -72 52 -25 -1 -33 -7 -42 -33 -10 -28 -72 -91 -81 -82 -6 7 14
149 24 166 26 48 -55 64 -86 17 -18 -28 -35 -89 -34 -124 0 -34 -32 -96 -79
-150 -22 -25 -40 -52 -40 -61 0 -18 -67 -69 -90 -69 -7 0 -34 -17 -59 -38 -53
-45 -93 -67 -138 -77 -18 -3 -35 -11 -38 -16 -4 -5 -18 -9 -33 -9 -31 0 -57
-14 -49 -26 3 -5 -27 -10 -65 -12 -39 -2 -82 -8 -95 -13 -36 -13 -198 -11
-273 3 -55 11 -67 17 -78 40 -7 15 -28 40 -47 54 -21 16 -35 35 -35 48 0 12
-5 27 -12 34 -6 6 -13 17 -14 24 -1 7 -7 33 -13 58 -15 62 -14 112 3 135 14
21 16 26 16 50 0 21 45 65 66 65 15 0 15 -2 -1 -26 -17 -26 -17 -91 0 -172 10
-44 91 -121 155 -147 8 -4 28 -14 45 -23 16 -8 68 -19 115 -23 128 -10 174 13
258 130 29 42 32 53 32 118 0 88 -17 171 -42 199 -31 35 -24 54 23 54 22 0 48
4 58 9 9 5 22 7 28 3 25 -16 37 -181 19 -262 -4 -14 -9 -41 -12 -60 -3 -19
-10 -45 -16 -57 -15 -30 -2 -73 22 -73 27 0 80 60 80 91 0 14 10 55 21 90 18
53 20 80 17 157 -3 51 -10 98 -17 105 -14 14 -15 47 -1 48 6 1 13 2 18 3 4 2
34 6 67 10 33 4 96 14 140 23 131 24 369 42 377 29 4 -6 18 -11 30 -11 16 0
22 -6 20 -17 -1 -10 13 -48 33 -84 25 -47 36 -78 34 -103 -2 -48 9 -79 32 -86
10 -4 19 -12 20 -18 3 -31 8 -64 14 -83 8 -25 -26 -43 -70 -37 -21 3 -51 -7
-101 -34 -134 -71 -206 -129 -323 -257 -75 -83 -121 -126 -135 -126 -19 0
-185 -76 -196 -90 -3 -3 -21 -16 -41 -28 -39 -24 -74 -28 -85 -11 -6 10 -260
5 -333 -6 -13 -3 -45 4 -70 14 -25 10 -80 25 -121 34 -41 8 -100 23 -130 32
-30 10 -83 24 -117 33 -35 9 -63 21 -63 28 0 17 -24 24 -64 17 -32 -5 -36 -3
-36 15 0 12 -17 39 -38 61 -34 36 -42 40 -68 32 -16 -4 -37 -7 -47 -5 -19 3
-52 -39 -43 -54 8 -13 170 -92 188 -92 7 0 45 -21 83 -46 39 -26 95 -57 125
-69 87 -34 294 -77 360 -74 19 1 67 -4 105 -10 90 -15 232 -12 247 6 6 7 19
13 30 13 13 0 17 4 12 13 -6 9 -4 9 7 1 8 -5 19 -10 24 -9 113 14 149 22 200
43 33 15 85 44 116 67 31 22 66 47 79 55 12 8 81 66 154 128 72 61 136 112
143 112 7 0 13 4 13 9 0 10 102 89 153 119 21 12 49 22 61 22 13 0 34 8 45 18
20 15 21 22 12 61 -6 29 -6 51 1 66 8 17 5 31 -11 63 -12 23 -21 54 -21 69 0
40 -25 104 -60 156 -27 40 -42 95 -22 84 4 -3 27 -1 52 2 25 4 48 6 51 5 3 -2
70 -5 147 -8z m-11818 -512 c36 -9 88 -26 116 -40 28 -13 57 -24 65 -24 8 0
23 -7 33 -15 11 -8 26 -15 34 -15 7 0 32 -13 55 -28 23 -16 63 -42 88 -59 84
-56 258 -205 283 -243 13 -20 57 -59 97 -86 39 -27 78 -53 86 -59 8 -5 47 -40
86 -77 40 -37 75 -68 79 -68 16 0 68 -85 68 -110 0 -34 22 -54 50 -45 15 5 20
2 21 -12 0 -10 3 -13 5 -6 7 16 105 -54 112 -79 2 -9 26 -27 53 -39 26 -12 46
-25 44 -29 -5 -8 -51 -279 -65 -380 -5 -36 -14 -87 -19 -115 -6 -27 -13 -61
-15 -75 -3 -14 -5 -25 -6 -25 -1 0 -4 -11 -5 -25 -2 -14 -12 -70 -23 -125 -18
-87 -50 -308 -66 -460 -3 -27 -11 -95 -17 -150 -13 -120 -18 -186 -29 -370 -4
-77 -13 -219 -19 -315 -7 -96 -9 -185 -6 -197 3 -14 -1 -25 -11 -31 -12 -7
-14 -14 -7 -28 5 -10 10 -73 11 -139 1 -66 6 -151 12 -190 5 -38 12 -128 15
-198 3 -71 7 -139 10 -150 2 -12 7 -86 9 -164 5 -138 0 -165 -23 -125 -9 15
-10 15 -11 -5 0 -13 4 -23 9 -23 15 0 22 -47 11 -75 -6 -17 -7 -33 0 -44 5
-10 11 -62 14 -117 4 -89 16 -173 30 -214 2 -8 7 -66 10 -128 4 -62 13 -131
21 -154 7 -23 12 -45 9 -50 -3 -4 -1 -25 5 -45 5 -21 12 -72 16 -114 l6 -76
-63 2 c-36 1 -74 7 -85 14 -12 6 -28 11 -36 11 -15 0 -66 22 -102 43 -107 64
-178 129 -214 195 -18 31 -40 71 -51 87 -10 17 -19 39 -19 51 -1 11 -10 39
-21 61 -11 22 -24 58 -29 79 -5 22 -20 71 -34 109 -14 39 -31 113 -37 165 -7
52 -16 122 -20 155 -9 70 -38 203 -46 217 -3 5 -16 55 -29 111 -22 102 -29
139 -41 211 -3 22 -10 50 -15 64 -8 21 -30 120 -43 192 -32 184 -121 602 -149
700 -8 30 -25 91 -37 135 -13 44 -26 91 -31 105 -4 14 -20 68 -35 120 -14 52
-35 113 -45 135 -42 94 -107 252 -114 275 -8 29 -27 74 -61 144 -13 28 -24 55
-24 62 0 6 -13 40 -29 75 -15 35 -38 98 -50 139 -12 41 -35 103 -51 136 -16
34 -32 74 -36 90 -4 16 -11 35 -17 42 -5 7 -13 29 -18 50 -62 289 -75 337 -91
334 -22 -3 -40 31 -33 61 4 16 0 30 -11 41 -14 14 -16 31 -12 94 3 42 2 145
-1 227 -7 165 3 298 25 332 8 12 14 31 14 41 0 10 16 50 35 89 19 39 35 76 35
81 0 24 81 58 180 77 71 13 102 11 200 -11z m5992 -117 c10 -12 27 -38 38 -57
10 -19 35 -46 54 -59 20 -13 36 -28 36 -33 0 -5 -10 -28 -21 -51 -27 -53 -82
-107 -108 -107 -11 0 -73 -14 -138 -31 -65 -17 -131 -34 -148 -38 -16 -5 -47
-16 -69 -25 -21 -9 -40 -16 -42 -16 -11 0 -1 23 30 68 48 72 70 171 63 283
l-6 88 47 3 c26 2 92 2 146 0 87 -3 101 -6 118 -25z m7174 25 c-3 -5 6 -40 19
-79 14 -38 26 -89 29 -114 2 -24 14 -93 25 -152 12 -59 21 -123 21 -142 0 -39
19 -172 28 -195 8 -21 32 -246 37 -355 3 -49 14 -164 25 -255 11 -91 22 -199
24 -240 19 -313 37 -556 46 -617 5 -40 12 -135 15 -210 4 -76 15 -219 26 -318
21 -194 26 -344 34 -1195 3 -300 8 -567 11 -595 2 -27 -1 -81 -7 -120 -6 -38
-12 -87 -13 -107 -1 -21 -5 -40 -8 -44 -4 -3 -4 -12 -1 -20 3 -8 1 -14 -4 -14
-9 0 -33 -203 -33 -282 0 -26 -5 -59 -11 -75 -6 -15 -11 -49 -10 -75 0 -27 -3
-48 -7 -48 -4 0 -8 -19 -8 -42 -1 -56 -12 -161 -23 -218 -5 -25 -15 -79 -22
-120 -6 -41 -18 -93 -27 -115 -8 -22 -19 -61 -23 -87 -5 -27 -13 -69 -18 -95
-15 -84 -41 -143 -62 -143 -23 0 -39 -29 -39 -69 0 -67 -33 -173 -95 -306 -24
-49 -50 -112 -60 -140 -24 -69 -21 -63 -60 -130 -19 -33 -41 -75 -50 -93 -9
-18 -22 -35 -30 -39 -8 -3 -15 -11 -15 -17 0 -7 -11 -33 -24 -57 -51 -92 -58
-104 -61 -121 -6 -31 -56 -123 -70 -131 -8 -4 -22 -24 -32 -45 -9 -20 -22 -40
-27 -44 -6 -4 -8 -8 -3 -8 4 0 1 -16 -7 -35 -16 -36 -16 -38 -16 -55 0 -5 -6
-10 -13 -10 -13 0 -37 -44 -184 -330 -58 -112 -87 -195 -76 -213 3 -4 -2 -16
-10 -25 -8 -9 -33 -53 -56 -97 -23 -44 -45 -87 -49 -95 -5 -8 -15 -27 -23 -42
-28 -53 -83 -143 -96 -156 -7 -7 -13 -21 -13 -31 0 -18 -86 -121 -101 -121
-10 0 -2 81 16 175 7 39 16 111 19 160 3 50 8 135 12 190 4 73 2 123 -10 183
-9 46 -18 87 -20 91 -15 23 -36 241 -37 380 0 90 -5 184 -9 210 -17 85 -66
287 -74 300 -4 6 -9 26 -11 44 -2 18 -13 75 -25 127 -24 99 -29 163 -16 193 5
10 4 17 -3 17 -6 0 -11 -8 -12 -17 0 -11 -5 -6 -11 11 -9 23 -7 36 7 61 15 29
15 40 5 91 -11 50 -14 56 -25 41 -11 -16 -13 -16 -26 -1 -19 23 -27 140 -14
211 10 55 1 86 -30 103 -14 7 -25 18 -25 23 0 5 6 4 14 -2 12 -10 13 -5 9 31
-3 24 -14 59 -23 78 -9 19 -20 48 -24 65 -9 34 -25 57 -36 50 -4 -2 -7 9 -8
25 -1 31 -48 120 -63 120 -5 0 -9 9 -9 19 0 11 -18 42 -41 71 -22 28 -57 82
-77 119 -27 50 -56 85 -109 130 -40 34 -73 67 -73 73 0 21 -149 159 -168 156
-10 -1 -50 23 -92 57 -41 33 -91 68 -110 78 -19 9 -47 25 -61 35 -58 38 -86
57 -135 88 -28 18 -56 40 -63 48 -8 9 -19 16 -25 16 -7 0 -21 8 -32 18 -89 79
-233 202 -238 202 -3 0 -14 7 -23 15 -41 35 -284 190 -363 231 -47 24 -103 55
-126 68 -23 13 -68 38 -100 56 -32 17 -71 39 -85 48 -71 46 -163 95 -220 118
-35 14 -88 38 -119 53 -30 15 -93 38 -140 51 -47 13 -90 27 -96 31 -18 14
-143 29 -244 29 -103 0 -240 -25 -330 -61 -30 -12 -79 -30 -109 -40 -29 -10
-59 -25 -65 -33 -6 -7 -38 -20 -71 -29 -33 -9 -91 -27 -129 -41 -65 -24 -79
-25 -215 -21 -80 2 -166 6 -191 9 -25 2 -65 0 -90 -5 -59 -13 -184 -72 -218
-104 -15 -14 -31 -25 -37 -26 -27 -2 -47 -9 -62 -21 -9 -7 -21 -13 -27 -13
-17 -2 -49 -16 -66 -31 -9 -7 -53 -22 -98 -33 -91 -22 -102 -27 -102 -45 0 -7
-25 -23 -55 -36 -31 -13 -67 -35 -80 -48 -27 -27 -85 -60 -113 -65 -24 -5
-139 -64 -147 -77 -4 -6 -39 -32 -78 -57 -40 -26 -103 -70 -142 -99 -38 -28
-84 -58 -102 -68 -18 -9 -48 -37 -68 -64 -43 -56 -128 -112 -171 -112 -8 0
-22 -4 -32 -9 -9 -5 -34 -17 -54 -27 -21 -10 -38 -22 -38 -26 0 -5 -11 -8 -25
-8 -14 0 -25 -5 -25 -12 0 -6 -3 -9 -6 -5 -3 3 -27 -8 -52 -24 -25 -16 -49
-29 -53 -29 -5 0 -20 -11 -35 -25 -15 -14 -31 -25 -37 -25 -6 0 -42 -24 -81
-53 -39 -29 -109 -78 -156 -109 -47 -31 -92 -64 -101 -75 -9 -10 -40 -36 -69
-58 -91 -70 -150 -127 -150 -145 0 -19 -11 -41 -48 -100 -12 -19 -22 -44 -22
-54 0 -20 -25 -113 -42 -156 -30 -76 -26 -420 6 -508 7 -20 19 -68 26 -107 7
-38 18 -79 25 -90 6 -11 15 -38 19 -60 7 -36 21 -70 53 -130 20 -37 33 -91 33
-134 0 -32 -10 -60 -41 -111 -53 -90 -68 -182 -50 -303 10 -67 26 -108 83
-224 70 -141 70 -144 66 -210 -2 -39 -9 -68 -16 -71 -7 -2 -12 -8 -12 -14 0
-9 -55 -85 -71 -98 -3 -3 -20 -34 -38 -69 -49 -98 -66 -199 -63 -376 3 -156
17 -241 68 -391 13 -40 24 -84 24 -97 0 -14 6 -27 13 -30 8 -3 26 -31 41 -64
62 -129 109 -219 137 -259 16 -23 29 -45 29 -47 0 -8 125 -212 155 -252 58
-79 272 -275 384 -353 42 -28 94 -64 116 -80 21 -15 57 -44 80 -65 41 -38 197
-147 211 -147 11 0 105 -60 139 -89 39 -33 74 -54 168 -96 45 -20 57 -30 57
-48 0 -40 50 -76 131 -96 41 -10 103 -32 139 -49 36 -16 76 -33 90 -37 14 -4
63 -26 110 -47 115 -54 114 -54 205 -84 113 -38 235 -53 306 -38 43 9 86 8
188 -2 114 -11 140 -11 189 2 31 9 77 18 102 20 89 9 100 11 107 17 3 4 56 7
117 7 61 0 149 7 196 16 47 8 110 20 140 25 115 21 177 31 235 36 33 3 68 11
79 19 11 8 43 14 71 14 52 1 106 10 190 34 28 8 70 20 95 26 84 22 200 60 252
84 92 41 113 49 126 52 7 1 20 8 28 15 9 7 23 14 32 15 15 1 101 34 167 64 11
4 34 11 50 15 17 3 48 14 70 25 22 10 75 34 117 54 43 20 83 36 89 36 7 0 51
24 98 53 82 51 172 97 189 97 4 0 23 11 42 24 19 13 49 26 65 30 39 8 144 76
221 142 32 27 88 72 124 99 57 43 120 95 185 155 11 10 38 27 60 39 56 30 75
42 111 72 17 14 46 32 63 40 17 8 64 49 103 92 40 42 78 77 85 77 7 0 13 4 13
9 0 8 64 51 75 51 5 0 -4 -54 -16 -95 -11 -40 -13 -50 -70 -445 -6 -41 -13
-82 -17 -90 -3 -8 -4 -19 -3 -23 1 -5 -3 -25 -9 -45 -6 -20 -14 -50 -16 -66
-3 -16 -14 -61 -25 -100 -11 -39 -22 -86 -25 -105 -2 -19 -9 -42 -14 -51 -5
-10 -14 -35 -19 -56 -5 -22 -15 -57 -21 -79 -6 -22 -12 -49 -14 -60 -2 -11 -9
-33 -16 -50 -23 -54 -49 -130 -50 -144 0 -7 -11 -39 -24 -70 -13 -31 -43 -105
-66 -166 -23 -60 -48 -125 -56 -143 -8 -18 -14 -40 -14 -50 0 -20 -23 -89 -33
-98 -4 -4 -7 -14 -7 -23 0 -43 -123 -381 -142 -389 -4 -2 -8 -17 -8 -33 0 -16
-4 -29 -10 -29 -5 0 -10 -5 -10 -11 0 -6 -14 -41 -31 -78 -18 -36 -49 -103
-70 -148 -22 -45 -39 -86 -39 -92 0 -5 -6 -14 -13 -18 -7 -4 -21 -29 -31 -55
-9 -25 -24 -52 -32 -58 -7 -7 -14 -17 -14 -22 0 -5 -11 -24 -25 -42 -14 -18
-25 -37 -25 -41 0 -5 -18 -32 -40 -61 -22 -29 -40 -57 -40 -63 0 -5 -3 -11 -7
-13 -10 -4 -78 -89 -86 -108 -9 -18 -35 -58 -62 -94 -65 -86 -85 -116 -85
-125 0 -6 -4 -11 -8 -11 -5 0 -34 -38 -65 -83 -31 -46 -63 -90 -72 -97 -8 -7
-15 -17 -15 -23 0 -6 -17 -31 -38 -56 -20 -25 -50 -65 -66 -88 -16 -24 -33
-43 -37 -43 -5 0 -9 -6 -9 -12 0 -7 -14 -26 -29 -41 -16 -16 -35 -43 -42 -60
-7 -18 -25 -51 -41 -74 -15 -23 -28 -46 -28 -51 0 -5 -7 -16 -17 -23 -13 -11
-81 -14 -337 -15 -295 -1 -327 -3 -400 -23 -81 -22 -116 -21 -116 6 0 12 -6
14 -27 8 -16 -4 -39 -8 -53 -10 -14 -2 -54 -9 -90 -15 -36 -7 -159 -13 -275
-15 -196 -2 -275 -9 -275 -24 0 -3 -5 -13 -10 -21 -9 -13 -13 -11 -29 9 -14
19 -28 24 -65 25 -30 1 -46 5 -46 14 0 7 -11 17 -24 22 -13 5 -28 15 -33 23
-12 21 -113 97 -128 97 -17 0 -143 80 -171 109 -12 11 -25 21 -31 21 -5 0 -20
12 -34 26 -28 31 -176 144 -187 144 -5 0 -19 10 -32 22 -13 12 -32 23 -42 23
-10 1 -38 16 -63 34 -42 30 -340 188 -340 181 0 -6 -117 70 -132 86 -8 8 -19
14 -24 14 -5 0 -28 13 -51 30 -22 16 -45 30 -50 30 -5 0 -21 14 -35 30 -13 17
-31 30 -38 30 -7 0 -26 12 -43 28 -17 15 -56 45 -87 67 -32 22 -72 54 -89 71
-17 18 -89 80 -161 138 -71 59 -139 115 -150 125 -11 10 -45 35 -75 57 -30 21
-57 41 -60 44 -3 3 -27 21 -53 40 -26 19 -67 50 -90 69 -23 19 -80 59 -127 89
-47 30 -92 62 -100 71 -8 9 -33 29 -55 45 -22 16 -44 34 -50 40 -5 6 -46 35
-90 63 -44 29 -85 56 -90 60 -6 4 -28 21 -50 37 -22 17 -42 33 -45 37 -3 3
-34 29 -70 57 -36 29 -70 56 -77 62 -7 5 -16 10 -20 10 -5 0 -29 21 -53 46
-25 25 -65 60 -90 77 -25 17 -50 36 -56 42 -6 5 -41 35 -78 65 -38 30 -89 73
-115 95 -81 68 -134 111 -196 158 -33 25 -98 79 -145 122 -47 42 -96 84 -110
93 -86 57 -285 229 -397 344 -179 184 -216 220 -303 298 -51 47 -112 103 -135
125 -74 70 -262 204 -392 278 -26 15 -86 52 -133 82 -47 30 -90 54 -95 55 -6
0 -21 24 -34 53 -29 63 -61 117 -121 200 -87 120 -102 145 -218 367 -30 58
-73 137 -95 175 -22 39 -64 113 -93 166 -30 53 -61 102 -69 109 -8 7 -15 18
-15 25 0 7 -18 43 -40 79 -22 37 -50 87 -62 111 -12 25 -26 45 -30 45 -4 0 -8
7 -8 15 0 8 -27 62 -60 119 -33 57 -60 109 -60 114 0 5 -9 17 -20 27 -11 10
-20 26 -20 35 0 10 -8 28 -18 41 -10 13 -33 69 -51 124 -18 55 -36 109 -41
120 -4 11 -18 47 -30 80 -13 33 -35 87 -50 120 -15 33 -40 89 -55 125 -16 36
-46 103 -68 150 -22 47 -40 93 -39 103 0 9 -4 17 -9 17 -12 0 -2 55 14 82 9
13 6 30 -9 70 -25 62 -37 106 -70 248 -30 134 -39 153 -63 145 -23 -7 -34 20
-50 120 -20 124 -32 179 -47 227 -29 88 -51 209 -69 378 -3 30 -12 91 -20 135
-13 72 -29 217 -38 350 -2 28 -13 118 -25 200 -11 83 -23 188 -26 235 -10 161
-16 285 -21 435 -3 83 -12 290 -20 460 -15 337 -13 519 10 895 38 611 54 775
80 793 14 11 17 21 12 47 -7 32 9 211 20 240 7 16 7 16 17 110 4 36 16 108 26
162 11 53 20 107 20 120 l1 23 14 -25 c12 -22 14 -23 21 -7 3 10 3 35 -1 55
-4 20 -7 47 -7 60 1 65 5 93 13 98 5 3 9 16 9 29 0 13 5 27 10 30 6 3 10 21
10 40 0 19 4 36 10 40 5 3 7 12 4 20 -4 8 1 17 9 21 8 3 138 1 289 -4 223 -8
285 -14 339 -30 83 -25 106 -37 137 -74 16 -18 32 -28 42 -25 10 3 28 -5 41
-17 13 -12 40 -31 59 -43 65 -41 161 -154 173 -204 4 -14 18 -31 32 -39 14 -7
25 -22 25 -32 0 -10 22 -63 49 -117 35 -68 51 -115 55 -152 3 -30 12 -71 21
-91 8 -21 15 -49 15 -63 0 -14 4 -25 9 -25 5 0 11 -14 15 -31 3 -17 13 -47 23
-67 17 -38 159 -212 171 -212 4 0 48 -34 97 -75 49 -41 92 -75 97 -75 5 0 41
-15 81 -34 39 -19 110 -52 157 -74 96 -44 197 -66 390 -82 69 -6 157 -15 195
-20 39 -5 194 -15 345 -22 247 -10 293 -10 450 6 96 10 207 20 245 22 39 3
129 15 200 29 72 13 198 34 280 46 83 12 195 32 250 45 55 13 134 30 175 39
41 8 107 27 145 41 39 14 111 39 160 55 163 52 189 61 288 105 53 24 105 44
115 44 19 0 71 51 143 140 24 30 46 57 49 60 24 22 73 98 104 160 20 41 43 86
50 100 8 14 19 37 25 53 6 15 15 37 21 50 5 12 12 40 15 62 3 22 14 78 24 125
48 215 54 248 56 300 2 30 6 134 9 230 4 96 12 199 19 229 12 61 30 73 127 86
30 4 82 13 115 21 33 7 98 18 145 24 47 7 96 14 110 16 14 3 130 5 258 5 194
0 232 3 232 15 0 11 16 14 69 14 38 0 76 3 85 6 11 4 16 -4 21 -33 11 -70 15
-81 30 -97 8 -8 15 -21 15 -28 0 -7 7 -22 15 -32 20 -27 19 -43 -4 -49 -16 -4
-19 -11 -14 -38 3 -19 10 -40 15 -46 13 -16 35 -17 40 -1 3 7 7 4 12 -7 4 -11
4 -16 0 -12 -4 4 -14 -10 -21 -30 -12 -34 -11 -46 8 -113 12 -41 27 -91 34
-110 7 -19 20 -56 29 -81 11 -30 24 -49 36 -52 15 -4 20 -14 20 -40 0 -22 6
-37 15 -41 8 -3 15 -12 15 -21 0 -8 5 -15 10 -15 16 0 32 -48 40 -117 5 -41
17 -77 36 -108 57 -91 74 -120 83 -141 5 -11 20 -28 33 -37 12 -8 54 -45 91
-81 38 -36 81 -69 95 -72 15 -3 61 -20 102 -39 74 -32 123 -51 208 -76 23 -7
42 -15 42 -20 0 -14 36 -21 150 -30 126 -11 456 -14 480 -6 20 7 210 17 500
27 216 7 413 25 533 50 27 6 70 10 95 10 72 -1 386 39 484 61 48 10 97 19 110
19 13 0 67 11 119 25 51 14 145 39 208 55 116 30 302 115 401 184 69 47 240
209 240 226 0 5 6 13 13 17 13 7 24 46 32 113 2 14 14 50 28 80 17 38 30 95
41 185 26 216 40 698 22 771 -5 20 -3 24 17 24 13 0 32 7 43 15 10 8 35 15 54
15 19 0 62 12 95 26 81 35 173 55 161 36z m-7582 -29 c9 -47 0 -156 -17 -204
-33 -97 -96 -184 -137 -193 -17 -3 -30 -12 -30 -21 0 -33 -44 -46 -181 -51
-74 -2 -182 -8 -242 -12 l-107 -7 -55 67 c-30 37 -55 71 -55 76 0 5 -6 15 -14
21 -34 28 -59 105 -60 183 0 43 4 82 9 87 6 5 33 11 60 12 46 3 50 1 49 -19 0
-12 3 -22 8 -22 5 0 8 -8 7 -17 -4 -47 4 -66 44 -103 23 -22 47 -40 53 -40 5
0 29 -18 51 -41 38 -38 47 -41 105 -45 128 -8 228 -4 263 10 75 32 155 151
155 233 0 63 27 113 61 113 22 0 28 -5 33 -27z m595 -4 c96 -17 145 -41 161
-78 7 -17 16 -31 21 -31 5 0 9 -9 9 -21 0 -26 55 -143 87 -185 12 -17 23 -40
23 -50 0 -26 19 -44 46 -44 50 0 65 62 31 133 -13 28 -31 67 -38 85 -8 17 -17
32 -20 32 -11 0 -18 40 -8 46 5 3 9 0 9 -5 0 -6 7 -11 16 -11 16 0 106 -58
112 -72 2 -4 8 -8 13 -8 16 0 143 -111 154 -134 5 -12 15 -27 22 -34 15 -16
16 -42 4 -75 -6 -15 -6 -70 -1 -138 9 -121 2 -182 -30 -254 -16 -35 -28 -100
-32 -170 -1 -25 -26 -216 -34 -270 -4 -22 -10 -44 -14 -50 -3 -5 -13 -37 -20
-70 -17 -74 -50 -144 -85 -176 -14 -13 -39 -50 -56 -81 -26 -51 -33 -58 -60
-58 -17 0 -51 -8 -77 -19 -26 -10 -65 -24 -87 -30 -22 -6 -58 -22 -80 -36 -62
-38 -224 -115 -242 -115 -6 0 -15 -9 -18 -20 -7 -22 -20 -26 -31 -9 -8 14 -95
4 -105 -13 -7 -11 -96 -29 -156 -32 -18 0 -33 -4 -33 -7 0 -7 -96 -24 -220
-39 -47 -6 -116 -15 -155 -20 -304 -40 -297 -39 -770 -49 -249 -6 -435 -14
-456 -20 -94 -29 -218 -13 -414 53 -22 8 -60 20 -85 27 -70 20 -221 104 -262
146 -70 71 -198 242 -198 265 0 7 -9 31 -20 53 -11 22 -20 54 -20 71 0 33 -57
160 -91 204 -22 29 -49 185 -49 285 0 107 36 379 56 416 7 15 21 49 30 76 9
26 28 58 41 71 16 14 23 30 20 42 -6 22 20 49 53 55 30 6 57 31 64 59 4 15 23
30 58 46 29 12 60 29 68 35 8 7 31 16 50 20 19 4 41 12 48 18 7 5 44 11 82 13
38 2 78 8 89 13 25 14 128 14 133 1 2 -7 33 -3 83 10 44 12 121 25 170 31 129
13 164 18 215 29 25 5 101 14 170 20 69 6 153 14 187 18 l61 8 -1 -107 c-2
-89 1 -110 16 -126 9 -11 17 -25 17 -31 0 -14 62 -97 96 -130 13 -13 24 -27
24 -32 0 -13 -27 -13 -34 -1 -4 5 -29 12 -58 16 -29 4 -59 11 -68 16 -39 20
-107 49 -117 49 -6 0 -16 7 -23 15 -7 8 -27 15 -46 15 -18 0 -49 8 -68 17 -33
15 -37 15 -54 0 -10 -9 -24 -17 -30 -17 -6 0 -9 -7 -6 -15 4 -8 13 -15 22 -15
9 0 27 -11 41 -23 15 -13 58 -34 96 -46 39 -13 80 -29 92 -37 12 -8 31 -14 42
-14 11 0 30 -4 43 -9 138 -53 158 -56 328 -54 186 2 415 10 445 17 11 2 63 15
116 29 52 14 124 31 160 37 35 6 69 15 74 20 9 7 69 23 80 21 3 -1 18 5 33 13
15 7 47 14 71 14 24 1 64 8 90 16 25 8 80 22 121 32 41 9 89 25 106 35 18 11
39 16 48 13 11 -4 16 -1 16 10 0 9 8 16 20 16 23 0 27 29 8 48 -15 15 -57 16
-94 2 -36 -14 -39 -9 -14 34 34 61 27 89 -35 150 -49 48 -67 76 -48 76 3 0 36
-5 72 -11z m4386 -5949 c9 -8 25 -30 35 -49 10 -20 32 -49 50 -66 36 -34 54
-71 63 -131 4 -23 18 -61 32 -85 14 -24 25 -51 25 -60 0 -8 13 -28 30 -44 16
-15 32 -42 36 -59 3 -17 10 -33 15 -36 5 -3 11 -69 15 -145 3 -77 12 -165 19
-195 15 -70 3 -286 -20 -330 -8 -16 -15 -35 -15 -43 0 -8 -7 -20 -15 -27 -8
-7 -13 -16 -10 -20 2 -4 -4 -17 -15 -30 -10 -12 -22 -36 -26 -53 -3 -19 -29
-56 -59 -87 -29 -31 -62 -74 -73 -96 -23 -46 -98 -130 -112 -126 -6 1 -10 -3
-10 -9 0 -7 -16 -31 -35 -55 -19 -23 -35 -46 -35 -50 0 -12 -151 -155 -205
-194 -26 -19 -64 -51 -84 -71 -123 -123 -191 -198 -191 -211 0 -9 -7 -21 -15
-28 -8 -7 -15 -20 -15 -29 0 -24 -98 -131 -120 -131 -11 0 -25 -12 -32 -27 -7
-15 -24 -33 -36 -39 -13 -6 -29 -17 -35 -23 -6 -6 -23 -11 -37 -11 -32 0 -66
-23 -56 -39 4 -6 12 -8 18 -5 7 4 8 2 4 -4 -9 -14 -36 -16 -36 -3 0 6 -17 10
-38 9 -21 0 -47 4 -58 10 -10 6 -109 34 -219 63 -178 46 -217 52 -355 60 -109
7 -179 6 -235 -2 -139 -20 -370 -69 -426 -90 -30 -11 -66 -24 -81 -29 -16 -5
-40 -17 -55 -28 -71 -49 -98 -55 -216 -49 -140 8 -175 14 -207 37 -14 9 -34
20 -46 24 -11 3 -34 19 -50 34 -54 51 -192 177 -205 187 -19 15 -107 55 -119
55 -5 0 -10 5 -10 10 0 6 -6 10 -13 10 -7 0 -31 13 -53 30 -21 16 -45 30 -52
30 -23 0 -96 38 -127 65 -16 14 -43 33 -59 42 -16 8 -38 24 -49 34 -12 10 -24
19 -29 19 -4 0 -8 5 -8 11 0 6 -15 29 -34 52 -43 54 -56 80 -56 111 0 14 -5
28 -11 31 -6 4 -8 13 -5 20 2 7 -2 22 -10 34 -8 12 -12 26 -9 31 3 6 1 10 -5
10 -6 0 -9 4 -6 9 3 5 -1 11 -9 15 -8 3 -15 15 -15 27 0 12 -8 23 -20 26 -11
3 -20 10 -20 15 0 5 -14 24 -31 42 -34 37 -62 86 -48 86 20 0 8 50 -16 66 -19
12 -23 20 -15 29 8 10 -2 22 -40 50 -28 20 -55 45 -60 56 -10 18 -80 68 -164
118 -71 41 -160 111 -186 145 -14 18 -36 57 -50 87 -14 30 -29 57 -34 60 -5 4
-6 45 -3 90 13 209 163 529 247 529 17 0 54 19 101 53 69 50 81 55 173 71 68
11 103 13 110 6 5 -5 18 -10 28 -10 11 0 15 -5 12 -15 -5 -11 1 -15 20 -15 15
0 29 7 32 15 6 14 8 13 19 -1 10 -15 23 -16 91 -10 43 4 93 14 111 23 21 10
43 13 61 8 15 -3 42 -9 60 -12 22 -3 32 -11 32 -22 0 -28 10 -31 49 -15 36 14
40 14 100 -16 34 -17 72 -30 84 -28 12 2 32 -7 45 -19 31 -29 87 -35 342 -35
240 0 285 4 315 31 13 12 42 20 80 24 33 3 68 8 77 12 13 5 20 0 28 -19 9 -25
13 -26 82 -26 77 1 174 11 273 30 33 6 87 14 120 16 33 3 87 14 120 24 55 17
169 29 317 35 31 1 73 6 93 9 26 5 44 3 60 -8 27 -18 58 -14 82 9 10 11 24 14
40 11 37 -10 115 -20 148 -19 163 3 225 8 225 19 0 17 45 44 73 44 13 0 45 14
71 30 38 24 51 28 62 19 16 -13 84 -4 84 11 0 6 6 10 13 10 7 0 22 8 33 18 14
13 30 17 57 14 32 -4 44 1 68 24 17 16 39 28 49 26 10 -2 32 5 50 15 39 22
140 24 165 3z m455 -7404 c41 -9 78 -22 81 -28 4 -6 15 -11 25 -12 20 -2 115
-45 124 -56 3 -4 31 -24 63 -45 32 -21 71 -51 87 -66 16 -16 31 -29 35 -29 3
0 18 -12 33 -27 48 -48 136 -123 144 -123 9 0 102 -98 107 -113 2 -7 12 -17
21 -24 9 -7 34 -38 56 -70 21 -32 52 -76 69 -98 39 -52 55 -81 55 -100 0 -8 7
-15 14 -15 9 0 36 -43 66 -102 28 -57 59 -115 68 -129 9 -14 30 -46 46 -70 16
-24 38 -64 48 -89 11 -25 24 -56 30 -70 7 -14 12 -27 13 -30 0 -3 13 -18 28
-34 15 -16 27 -36 27 -45 0 -9 9 -34 20 -56 11 -22 20 -49 20 -62 0 -12 4 -24
9 -27 5 -3 12 -18 16 -33 3 -16 18 -52 31 -82 14 -29 28 -70 31 -90 4 -20 12
-45 19 -56 6 -11 15 -40 19 -65 3 -25 12 -65 20 -90 11 -37 17 -65 29 -130 1
-3 5 -10 9 -17 4 -6 10 -44 13 -85 6 -76 31 -161 45 -153 16 10 27 -19 38
-105 8 -60 19 -91 34 -101 6 -4 6 -17 0 -35 -10 -32 -7 -64 8 -64 5 0 9 -7 9
-15 0 -8 4 -15 9 -15 5 0 1 -24 -10 -52 -10 -29 -19 -71 -19 -93 0 -39 -2 -41
-42 -53 -24 -7 -83 -15 -133 -17 -76 -4 -547 -6 -666 -4 -38 1 -43 8 -89 124
-4 11 -13 34 -20 50 -8 17 -14 35 -14 40 -1 6 -9 31 -20 55 -32 77 -34 83 -51
145 -9 33 -21 71 -25 85 -4 14 -13 45 -20 70 -7 25 -16 56 -21 70 -17 51 -31
157 -34 269 -4 100 -21 221 -66 451 -6 30 -24 84 -41 120 -41 88 -46 105 -73
255 -20 107 -50 249 -71 325 -24 92 -47 169 -54 185 -5 11 -19 58 -30 104 -14
53 -34 104 -58 141 -35 53 -194 210 -214 210 -5 0 -21 12 -36 26 -41 39 -139
102 -171 109 -36 8 -71 42 -50 49 60 21 308 16 409 -8z m-3136 -2191 c32 -27
84 -75 116 -105 31 -30 84 -79 116 -109 33 -29 91 -83 129 -120 84 -79 200
-183 291 -260 79 -66 89 -80 81 -113 -6 -23 -10 -24 -87 -26 -50 -1 -80 2 -80
9 0 5 -5 7 -10 4 -6 -4 -8 -9 -6 -13 5 -9 -164 -14 -515 -16 l-265 -1 -37 40
c-20 22 -40 49 -43 60 -4 11 -10 22 -13 25 -14 10 -91 140 -91 153 0 7 -7 23
-16 35 -21 30 -14 55 16 62 18 4 32 20 48 54 13 27 32 58 43 69 10 11 19 25
19 31 0 5 7 16 15 25 8 9 35 43 59 76 25 33 54 70 65 82 12 12 21 25 21 28 0
3 12 24 26 46 29 46 18 49 118 -36z"/>
<path d="M14030 18600 c-69 -15 -152 -36 -185 -47 -33 -11 -98 -26 -145 -33
-47 -7 -107 -21 -135 -31 -98 -35 -205 -55 -353 -64 -219 -13 -270 -18 -307
-27 -47 -13 -52 -14 -130 -28 -60 -10 -223 -72 -301 -113 -78 -41 -184 -109
-184 -118 0 -5 -7 -9 -15 -9 -8 0 -15 -3 -15 -7 0 -5 -20 -28 -45 -53 -24 -25
-44 -49 -45 -55 0 -5 -21 -37 -48 -70 -26 -33 -72 -100 -103 -150 -31 -49 -61
-89 -66 -88 -6 1 -8 -8 -6 -20 3 -15 -4 -30 -21 -46 -30 -28 -35 -77 -12 -119
8 -15 18 -48 21 -73 4 -30 14 -54 29 -68 23 -21 24 -21 72 -5 27 9 74 32 104
52 135 88 317 154 418 154 53 -1 182 34 254 67 80 37 182 67 278 80 263 39
326 45 425 44 61 0 148 -6 195 -13 54 -9 166 -13 305 -12 237 2 340 -9 365
-40 12 -14 35 -19 105 -23 57 -4 95 -11 105 -20 9 -8 21 -15 27 -15 6 0 13 -9
16 -20 10 -37 150 -86 299 -105 48 -6 59 -4 76 13 18 18 19 23 7 39 -16 21
-20 80 -5 85 14 5 29 93 18 112 -5 9 -7 25 -3 35 3 12 0 21 -10 25 -8 3 -15
12 -15 21 0 8 -4 15 -8 15 -13 0 -56 111 -58 148 -1 19 -10 46 -21 61 -20 26
-38 70 -35 82 0 4 -8 15 -18 24 -11 10 -20 26 -20 36 0 9 -3 19 -7 21 -5 2
-21 29 -37 61 -39 79 -58 101 -124 146 -52 35 -65 39 -147 45 -133 11 -175 22
-215 60 -76 73 -120 80 -280 46z"/>
<path d="M7840 18077 c-36 -5 -123 -10 -195 -12 -219 -4 -396 -16 -470 -31
-38 -8 -140 -22 -225 -30 -85 -8 -175 -21 -200 -28 -25 -8 -78 -22 -118 -32
-41 -9 -80 -23 -87 -31 -8 -7 -16 -13 -20 -13 -3 0 -42 -26 -87 -57 -148 -106
-159 -113 -192 -127 -33 -14 -135 -79 -211 -136 -22 -16 -56 -40 -75 -53 -19
-14 -47 -39 -63 -56 -15 -17 -34 -31 -41 -31 -23 0 -148 -134 -176 -187 -14
-26 -30 -54 -37 -61 -8 -8 -22 -35 -33 -60 -12 -26 -25 -54 -30 -62 -5 -8 -26
-48 -45 -89 -45 -93 -44 -129 4 -152 31 -14 42 -14 138 2 162 28 358 102 458
173 17 11 53 31 80 44 54 25 95 58 95 78 0 13 80 54 106 54 9 0 38 13 63 29
26 15 58 32 72 36 13 4 94 41 179 82 240 115 250 119 261 102 5 -9 49 -6 175
11 189 25 211 26 233 6 20 -17 88 -12 149 11 35 13 72 15 212 11 94 -3 172 -2
174 1 5 8 391 -15 407 -24 7 -5 247 -17 312 -16 9 0 15 -4 12 -10 -4 -5 -2 -9
4 -9 5 0 11 3 14 8 2 4 2 1 1 -5 -5 -21 7 -43 23 -43 8 0 11 5 8 10 -3 6 -1
10 5 10 7 0 14 -9 17 -20 6 -21 28 -27 38 -10 3 6 14 10 23 10 15 0 15 -2 2
-10 -13 -8 -12 -11 5 -23 10 -8 25 -12 33 -9 8 3 17 0 21 -7 11 -18 62 -29
122 -27 63 2 145 -11 174 -29 12 -8 50 -12 99 -10 64 1 81 5 92 20 17 23 17
30 2 47 -7 7 -13 20 -13 28 0 8 -6 16 -12 16 -7 1 -17 2 -22 3 -13 2 -61 90
-63 115 -1 12 2 35 6 51 6 27 2 34 -29 59 -19 16 -35 34 -35 42 0 8 -5 14 -11
14 -5 0 -7 5 -4 10 4 6 10 8 15 5 5 -3 11 -1 15 5 3 5 -1 10 -9 10 -9 0 -15 3
-14 8 2 4 -9 19 -24 33 -19 20 -25 33 -21 55 3 21 2 25 -5 15 -9 -12 -16 -10
-41 15 -66 63 -85 76 -117 81 -18 3 -43 16 -55 29 -12 13 -28 24 -35 24 -7 0
-25 5 -41 11 -15 7 -46 14 -68 16 -46 4 -94 18 -150 44 -36 16 -96 34 -198 60
-51 12 -495 17 -577 6z"/>
<path d="M16665 16150 c-27 -29 -29 -34 -29 -132 -1 -122 10 -313 24 -418 5
-41 17 -142 26 -225 8 -82 19 -156 24 -165 4 -8 13 -49 19 -90 7 -41 16 -77
22 -78 5 -2 14 -13 20 -24 8 -15 7 -24 -5 -37 -14 -16 -15 -30 -7 -102 5 -46
7 -87 4 -92 -2 -4 3 -19 12 -33 12 -18 15 -36 10 -60 -4 -24 -2 -34 7 -34 8 0
9 -3 3 -8 -5 -4 -11 -36 -12 -72 -3 -91 -32 -248 -54 -292 -10 -20 -16 -44
-13 -53 4 -9 -2 -28 -13 -43 -11 -15 -23 -38 -27 -50 -4 -13 -21 -36 -37 -53
-16 -16 -29 -31 -29 -33 0 -2 -16 -21 -35 -42 -19 -21 -35 -43 -35 -49 0 -6
-11 -26 -23 -45 -26 -38 -67 -152 -67 -185 0 -12 -5 -26 -11 -32 -7 -7 -8 -23
-3 -45 4 -18 7 -39 6 -45 -2 -7 5 -24 14 -38 34 -52 98 -18 107 58 18 144 53
226 142 334 45 55 120 200 130 254 2 10 9 28 16 40 41 77 76 460 46 513 -6 12
-12 30 -13 41 -2 55 -29 171 -40 181 -9 7 -18 54 -25 130 -6 65 -15 160 -20
209 -5 50 -14 155 -19 235 -5 80 -14 174 -19 209 -5 35 -8 134 -7 220 1 129
-1 158 -14 168 -24 20 -44 15 -75 -17z"/>
<path d="M12377 16122 c-21 -23 -22 -32 -3 -32 7 0 19 -7 27 -16 7 -8 20 -14
28 -11 12 3 16 -4 17 -25 1 -20 12 -38 35 -57 l33 -28 -27 -7 c-35 -8 -35 -24
1 -32 15 -4 48 -18 73 -32 51 -28 104 -26 92 4 -5 15 4 16 83 10 264 -18 272
-18 284 1 10 16 10 16 5 -3 -5 -18 -2 -20 25 -16 27 4 44 22 21 22 -6 0 -22
11 -37 25 -16 14 -39 25 -55 25 -16 0 -48 4 -71 9 -24 5 -74 16 -113 25 -38 8
-92 18 -120 22 -27 4 -53 12 -57 18 -4 6 -11 11 -15 12 -25 2 -93 26 -98 34
-3 6 -21 10 -38 10 -29 1 -30 2 -14 14 14 11 15 16 5 24 -27 22 -63 24 -81 4z"/>
<path d="M14005 16089 c-27 -10 -57 -23 -65 -28 -8 -4 -40 -13 -70 -20 -30 -7
-71 -21 -91 -32 -20 -10 -101 -32 -180 -48 -79 -16 -157 -34 -172 -40 -16 -6
-42 -11 -58 -11 -19 0 -29 -5 -29 -15 0 -21 12 -24 105 -29 100 -4 214 13 334
53 52 17 99 31 106 31 23 0 126 50 170 83 29 21 44 40 45 55 0 28 -26 28 -95
1z"/>
<path d="M12640 15850 c0 -4 8 -14 17 -21 15 -12 16 -12 8 1 -4 8 -4 12 0 7
12 -11 17 -47 6 -47 -14 0 -20 -39 -8 -47 23 -15 122 -43 153 -43 16 0 68 -9
115 -20 154 -37 176 -41 225 -46 27 -2 78 -4 114 -3 36 0 81 1 100 1 19 0 56
-4 81 -9 35 -7 51 -6 65 4 10 7 23 13 28 13 6 0 5 -4 -2 -9 -11 -6 -10 -10 4
-15 10 -4 15 -4 11 0 -4 4 0 16 9 25 16 17 15 19 -12 30 -32 12 -63 17 -139
23 -58 5 -143 23 -165 35 -9 5 -37 8 -63 7 -26 0 -47 2 -47 7 0 4 -17 7 -37 7
-20 0 -45 8 -55 17 -16 14 -23 15 -39 5 -15 -10 -19 -10 -19 1 0 9 -11 12 -35
9 -34 -4 -95 16 -95 31 0 4 -9 3 -20 -3 -12 -6 -20 -7 -20 -1 0 5 6 11 13 14
9 3 9 7 0 17 -10 11 -17 10 -37 -3 -15 -10 -27 -13 -31 -7 -4 7 -13 7 -24 0
-21 -11 -35 -2 -22 14 6 8 -4 11 -35 12 -24 0 -44 -2 -44 -6z"/>
<path d="M12245 15700 c-8 -13 24 -60 42 -60 10 0 13 -6 9 -16 -3 -8 -2 -12 4
-9 14 9 50 -4 50 -18 0 -8 -3 -8 -12 1 -12 12 -38 -1 -38 -18 0 -10 92 -45
110 -41 8 2 12 0 8 -5 -10 -10 53 -56 69 -50 7 3 12 0 10 -7 -1 -7 11 -13 27
-15 16 -2 39 -10 50 -17 12 -7 39 -17 61 -21 22 -3 47 -12 55 -19 30 -26 124
-62 280 -107 100 -28 112 -30 235 -24 72 3 166 10 210 17 44 6 92 11 108 11
15 0 27 5 27 10 0 5 15 6 34 3 28 -6 34 -4 33 10 -1 12 10 22 31 29 19 7 38
19 43 28 17 31 -17 36 -161 27 -74 -5 -162 -10 -196 -13 -33 -2 -74 -11 -90
-19 -17 -9 -46 -16 -65 -16 -30 1 -138 26 -209 49 -14 5 -56 16 -95 25 -38 10
-90 27 -115 40 -25 12 -85 39 -135 60 -49 21 -99 44 -110 52 -11 7 -27 13 -36
13 -9 0 -20 7 -23 16 -3 8 -9 13 -14 11 -4 -3 -27 8 -50 24 -38 26 -112 58
-134 59 -4 0 -10 -4 -13 -10z"/>
<path d="M2587 16099 c-9 -6 -26 -9 -36 -7 -10 2 -25 -3 -34 -10 -15 -12 -15
-16 0 -47 14 -28 14 -37 2 -64 -17 -38 -29 -40 -30 -3 -1 15 -2 32 -4 37 -1 6
-3 16 -3 23 -1 6 -6 12 -11 12 -15 0 -20 -53 -10 -100 6 -25 13 -58 15 -75 3
-16 8 -37 11 -45 3 -8 8 -35 10 -60 2 -25 7 -52 10 -60 3 -8 5 -19 4 -24 -1
-4 5 -19 14 -32 8 -13 15 -34 15 -47 0 -13 3 -27 8 -31 4 -4 7 -11 7 -14 1 -4
4 -16 7 -27 3 -11 12 -41 19 -67 11 -41 16 -47 34 -42 11 4 17 3 13 -1 -4 -5
-2 -15 5 -24 11 -14 10 -14 -5 -2 -13 10 -18 10 -18 1 0 -6 9 -14 19 -17 24
-6 32 -25 20 -44 -8 -11 -9 -10 -7 5 2 10 -3 21 -9 23 -10 4 -11 -1 -4 -19 5
-13 16 -22 24 -20 16 3 45 -64 33 -75 -3 -4 1 -14 10 -24 8 -9 17 -32 19 -51
2 -18 13 -55 24 -82 16 -37 25 -47 40 -43 22 5 45 -25 29 -41 -16 -16 0 -36
18 -21 12 10 13 9 8 -5 -5 -12 -2 -15 10 -10 12 5 16 0 16 -20 0 -17 5 -26 15
-26 9 0 18 -8 22 -17 3 -10 13 -34 21 -53 9 -19 16 -45 16 -57 1 -12 7 -28 14
-34 6 -7 12 -20 12 -29 0 -9 5 -21 12 -28 7 -7 8 -12 4 -12 -5 0 -3 -7 4 -15
10 -12 10 -15 0 -15 -9 0 -8 -5 3 -18 10 -10 17 -31 17 -46 0 -15 5 -37 12
-49 6 -12 15 -53 19 -92 5 -38 12 -94 17 -122 7 -43 6 -53 -6 -53 -12 0 -12
-4 1 -24 9 -14 16 -45 16 -78 0 -66 10 -126 22 -134 5 -3 7 -9 5 -13 -3 -4 4
-36 15 -72 11 -35 23 -73 25 -84 3 -11 9 -40 15 -65 6 -25 16 -80 23 -123 7
-43 18 -83 24 -89 7 -7 12 -22 12 -35 0 -14 18 -43 43 -70 23 -25 41 -47 40
-49 -13 -19 16 -37 42 -28 23 9 19 69 -10 154 -14 41 -34 127 -45 190 -20 120
-27 155 -54 255 -9 33 -20 131 -26 217 -5 87 -12 168 -14 180 -73 336 -122
491 -190 591 -14 21 -26 40 -26 42 0 3 -29 53 -64 112 -72 122 -127 229 -157
306 -11 28 -26 66 -33 82 -32 75 -66 207 -71 282 -9 121 22 208 61 169 8 -9
20 -14 25 -11 14 9 37 -17 32 -36 -6 -20 48 -61 54 -42 5 13 33 6 33 -9 0 -5
-5 -6 -11 -2 -7 4 -10 1 -7 -7 3 -8 11 -13 17 -11 6 1 11 -5 11 -12 0 -8 24
-31 53 -50 72 -48 113 -89 180 -179 15 -20 51 -63 79 -94 27 -32 53 -66 57
-75 3 -9 47 -59 96 -111 50 -52 109 -121 133 -153 23 -33 60 -81 82 -109 22
-27 47 -63 56 -80 41 -77 53 -96 75 -124 26 -33 53 -39 83 -16 15 11 17 22 12
53 -17 109 -117 252 -350 500 -53 57 -96 106 -96 110 0 4 -30 39 -67 79 -38
39 -88 96 -112 126 -24 29 -67 69 -95 87 -28 19 -76 59 -108 90 -164 161 -273
218 -341 179z"/>
<path d="M12370 14091 c-41 -19 -53 -56 -21 -66 12 -3 21 -10 21 -16 0 -5 8
-18 18 -29 9 -11 16 -23 14 -26 -2 -2 6 -16 18 -31 11 -14 20 -30 20 -36 0 -6
8 -19 18 -30 12 -14 13 -21 5 -24 -15 -5 -5 -33 12 -33 8 0 12 -11 11 -31 -1
-16 1 -32 6 -35 4 -3 8 -16 8 -30 0 -14 7 -27 15 -30 8 -4 15 -14 15 -23 0
-11 3 -12 8 -4 11 17 35 -1 30 -23 -2 -11 -10 -18 -16 -16 -14 3 -15 -9 -2
-66 8 -33 7 -56 -6 -97 -8 -30 -13 -58 -11 -63 3 -4 -8 -30 -24 -57 -16 -28
-33 -60 -39 -73 -5 -12 -17 -25 -25 -28 -8 -4 -15 -12 -15 -19 0 -7 -21 -26
-47 -41 -27 -15 -54 -33 -61 -40 -8 -9 -32 -12 -73 -9 -53 4 -60 3 -55 -11 3
-9 6 -22 6 -29 0 -7 16 -22 36 -34 39 -23 104 -20 125 5 6 8 18 14 27 14 28 0
171 124 164 143 -5 16 20 48 46 58 21 8 23 12 12 19 -13 8 -12 13 3 40 18 30
45 122 47 156 0 10 3 62 6 115 5 94 5 97 -24 140 -16 24 -33 55 -37 69 -4 13
-14 30 -21 38 -8 7 -14 23 -14 34 0 11 -17 46 -37 78 -21 32 -45 71 -54 87 -9
16 -29 39 -45 50 -28 20 -31 20 -64 4z"/>
<path d="M9438 13768 c-28 -10 -37 -35 -18 -54 6 -6 -5 -17 -31 -31 -21 -12
-37 -18 -34 -13 3 5 -9 3 -26 -3 -32 -12 -86 -74 -74 -85 3 -3 10 0 15 8 6 8
10 11 10 6 0 -5 12 1 26 15 24 22 26 22 22 4 -2 -11 -9 -19 -16 -18 -6 2 -9
-3 -6 -10 5 -15 -52 -61 -66 -52 -5 3 -7 -1 -4 -9 3 -9 12 -12 22 -9 13 5 11
0 -6 -29 -12 -19 -18 -39 -14 -43 4 -5 -1 -5 -11 -2 -10 4 -16 3 -13 -1 2 -4
1 -35 -3 -69 -7 -64 10 -241 28 -278 5 -11 17 -42 27 -70 21 -60 93 -139 179
-196 47 -31 69 -39 105 -39 25 0 59 -8 75 -17 39 -23 251 -21 295 2 16 8 51
15 78 15 51 0 72 12 72 42 0 10 6 18 13 18 6 1 -8 10 -33 22 -40 19 -50 20
-105 9 -33 -6 -104 -14 -158 -16 -83 -4 -99 -3 -104 11 -4 12 -18 15 -52 14
-65 -3 -71 -2 -71 16 0 9 -7 14 -18 12 -21 -3 -118 71 -105 81 18 13 14 34 -6
28 -25 -6 -49 19 -58 63 -3 19 -15 43 -25 54 -11 13 -18 35 -18 61 0 22 -6 47
-12 54 -10 11 -10 14 0 18 18 7 16 73 -3 73 -19 0 -19 -2 6 72 26 80 41 111
56 121 7 4 13 16 13 25 0 9 23 40 51 68 44 45 51 57 52 95 2 48 -8 55 -55 37z"/>
<path d="M11690 13500 c0 -3 -15 -5 -32 -5 -26 0 -33 -4 -31 -18 0 -10 -1 -16
-4 -13 -2 2 -13 -3 -23 -12 -10 -9 -44 -37 -74 -62 -31 -24 -56 -48 -56 -53 0
-5 -18 -27 -41 -49 -34 -33 -45 -38 -69 -33 -30 7 -76 -12 -99 -39 -8 -9 -24
-16 -36 -16 -12 0 -53 -15 -91 -34 -114 -55 -123 -57 -183 -46 -69 13 -138 13
-146 0 -4 -6 -28 -9 -55 -7 -40 3 -54 10 -75 35 -15 18 -34 32 -44 32 -30 0
-120 51 -174 99 -124 110 -202 156 -286 167 -67 9 -227 -14 -243 -34 -11 -13
-9 -14 15 -10 39 7 35 -12 -15 -71 -31 -35 -51 -50 -69 -50 -15 -1 -32 -8 -39
-16 -11 -14 -10 -14 15 -5 28 11 48 5 30 -8 -6 -4 -21 -28 -34 -54 -20 -40
-22 -51 -12 -81 23 -69 91 -44 113 40 6 26 27 64 49 89 21 24 43 52 51 61 32
44 126 75 112 38 -7 -17 26 -32 80 -38 31 -4 96 -41 104 -59 2 -4 9 -8 16 -8
7 0 25 -14 42 -31 29 -31 143 -110 178 -122 11 -5 16 -13 12 -23 -3 -9 -2 -12
5 -9 5 4 27 -4 47 -18 24 -17 63 -29 111 -36 41 -7 78 -14 83 -17 5 -3 65 -2
134 2 112 6 129 9 154 30 15 13 37 24 48 24 12 0 24 5 27 10 3 6 15 10 25 10
18 0 98 39 127 62 6 5 23 6 37 2 20 -5 26 -2 26 10 0 9 17 26 38 40 20 13 53
41 73 62 20 22 56 58 80 81 67 63 166 102 184 73 3 -5 15 -10 26 -10 11 0 29
-9 41 -20 12 -11 30 -20 40 -20 10 0 31 -13 46 -29 39 -42 77 -48 98 -16 9 14
17 43 18 64 l2 39 -48 6 c-33 5 -48 11 -48 21 0 8 -6 15 -14 15 -8 0 -21 9
-29 20 -8 11 -27 21 -43 22 -16 1 -35 6 -43 12 -14 11 -131 16 -131 6z"/>
<path d="M6580 16164 c0 -7 -9 -16 -20 -19 -11 -3 -21 -11 -21 -16 -1 -5 -2
-15 -3 -21 -3 -21 14 -38 105 -99 113 -76 143 -92 206 -113 61 -20 102 -18
117 7 18 28 -5 50 -80 76 -38 14 -75 33 -82 43 -7 10 -17 16 -22 13 -4 -3 -10
-2 -12 2 -1 5 -15 15 -29 23 -71 42 -90 57 -95 78 -4 12 -12 22 -20 22 -8 0
-14 4 -14 8 0 5 -7 9 -15 9 -8 0 -15 -6 -15 -13z"/>
<path d="M9121 15939 c-14 -5 -57 -34 -95 -64 -39 -30 -93 -66 -121 -81 -61
-34 -166 -90 -221 -119 -23 -12 -57 -34 -76 -48 -19 -15 -38 -27 -42 -27 -5 0
-20 -9 -35 -19 -35 -25 -140 -60 -216 -72 -86 -14 -135 -38 -135 -65 0 -39 19
-45 110 -33 46 5 91 14 101 20 10 5 25 9 35 9 24 0 198 85 274 135 36 23 119
70 185 105 66 34 130 72 143 84 13 11 45 33 70 47 26 14 60 45 77 68 29 42 29
43 11 57 -23 16 -32 17 -65 3z"/>
<path d="M8505 15821 c-22 -4 -51 -13 -65 -21 -14 -7 -45 -14 -70 -15 -25 -1
-57 -7 -72 -13 -14 -6 -50 -13 -80 -15 -29 -3 -65 -9 -79 -15 -15 -6 -109 -14
-210 -17 -159 -6 -189 -5 -223 10 -45 19 -82 13 -91 -15 -9 -28 -2 -35 57 -55
76 -25 392 -25 458 0 53 20 181 45 265 52 37 3 68 12 84 24 13 10 30 19 37 19
26 0 83 33 87 51 4 16 0 19 -26 18 -18 -1 -50 -5 -72 -8z"/>
<path d="M11628 10075 c-3 -3 -32 -10 -65 -15 -32 -5 -77 -19 -100 -30 -23
-11 -60 -20 -82 -20 -22 0 -62 -7 -88 -16 -36 -12 -95 -17 -233 -20 -228 -4
-340 -13 -360 -29 -8 -6 -37 -18 -65 -25 -27 -7 -79 -28 -115 -46 -72 -36 -87
-41 -157 -54 -65 -11 -82 -16 -124 -34 -60 -25 -185 -37 -217 -20 -15 8 -44
14 -65 14 -31 0 -37 -3 -35 -17 2 -12 -4 -19 -19 -21 -28 -4 -36 -25 -50 -125
-6 -43 9 -67 41 -67 13 0 61 -39 131 -108 110 -107 150 -159 161 -210 6 -31
75 -194 85 -202 15 -12 103 -139 121 -174 14 -27 19 -51 15 -76 -9 -70 16
-100 142 -177 20 -11 63 -29 96 -38 33 -9 74 -23 90 -30 146 -65 159 -69 229
-70 62 0 80 5 146 37 118 59 166 68 339 63 90 -3 176 -11 214 -21 63 -15 65
-15 108 6 64 32 134 110 161 180 27 71 58 107 153 179 39 29 94 81 124 115 29
33 64 73 77 88 13 15 24 31 24 34 0 4 22 37 50 74 50 68 109 181 115 222 5 32
31 112 46 139 6 13 13 34 14 48 2 14 8 49 15 76 16 67 19 117 7 133 -6 8 -6
12 2 12 6 0 11 9 11 20 0 11 -5 20 -10 20 -6 0 -15 11 -20 24 -5 13 -19 28
-32 31 -12 4 -30 18 -40 30 -12 15 -33 25 -60 28 -24 3 -72 11 -108 17 -38 7
-130 10 -222 7 -86 -2 -161 0 -165 4 -4 4 -45 12 -91 18 -45 6 -91 15 -102 21
-20 10 -83 14 -92 5z"/>
</g>
</svg>
